<svg width="387" height="311" viewBox="0 0 387 311" fill="none" xmlns="http://www.w3.org/2000/svg">
<path d="M149.293 289.522H3.98438V310.081H149.293V289.522Z" fill="#483AE7"/>
<path d="M217.111 115.437L247.461 76.0214C252.698 69.2195 251.46 59.4878 244.695 54.2789L174.202 0L-0.000230488 226.241L20.1382 241.747L51.5422 200.962L94.0047 233.658L62.6007 274.443L82.7392 289.949L147.696 205.588C153 198.699 151.738 188.838 144.895 183.569C151.738 188.838 161.595 187.537 166.899 180.648L197.914 140.369C202.48 134.439 202.181 126.305 197.638 120.793C196.906 119.896 196.068 119.084 195.114 118.349C196.068 119.084 197.067 119.687 198.122 120.166C204.611 123.148 212.552 121.358 217.111 115.437ZM106.541 217.377L64.0783 184.681L94.6966 144.916L137.159 177.612L106.541 217.377ZM149.702 161.322L107.239 128.627L138.643 87.8417L181.106 120.537L149.702 161.322ZM193.642 104.256L151.179 71.5608L181.798 31.796L224.26 64.4915L193.642 104.256Z" fill="black"/>
<path d="M216.503 116.75L221.959 113.309C224.018 116.35 225.861 118.671 227.506 120.247C229.144 121.829 230.844 122.8 232.599 123.166C234.361 123.526 236.351 123.26 238.584 122.357C240.808 121.459 243.526 120.009 246.712 117.999L309.767 78.2272C312.953 76.2179 315.435 74.4651 317.218 72.9562C319.001 71.4472 320.179 69.9017 320.775 68.3175C321.358 66.7304 321.381 65.0565 320.838 63.3006C320.295 61.5447 319.329 59.3635 317.952 56.7933L323.408 53.3522L351.25 97.2824C359.98 111.057 364.493 123.053 364.794 133.278C365.091 143.496 361.148 151.19 352.961 156.354C342.136 163.182 329.544 160.204 315.201 147.409L314.653 147.755C317.832 152.77 320.008 157.759 321.171 162.706C322.334 167.652 322.537 172.347 321.784 176.777C321.023 181.212 319.413 185.293 316.939 189.029C314.464 192.765 311.179 195.914 307.085 198.496C302.444 201.424 297.686 202.854 292.814 202.807C287.936 202.752 282.985 201.371 277.965 198.67C268.269 193.415 258.913 183.683 249.889 169.445L216.496 116.755L216.503 116.75ZM302.933 122.001C305.534 126.106 308.171 129.42 310.857 131.945C313.542 134.47 316.27 136.32 319.054 137.498C324.835 139.982 330.904 139.219 337.275 135.2C343.646 131.182 347.678 126.342 348.553 121.187C349.432 116.04 347.554 109.809 342.927 102.51L336.769 92.7928C335.729 91.1524 334.432 90.817 332.89 91.7896L297.817 113.912L302.936 121.989L302.933 122.001ZM258.832 165.145C268.139 179.83 279.393 183.014 292.582 174.696C300.675 169.591 304.916 163.213 305.297 155.568C305.471 151.624 304.594 147.233 302.67 142.383C300.746 137.532 297.785 131.961 293.796 125.666L289.632 119.097L262.339 136.312C256.696 139.872 253.621 143.854 253.108 148.265C252.595 152.676 254.507 158.303 258.845 165.147L258.832 165.145Z" fill="#483AE7"/>
<path d="M313.503 229.961L191.259 229.961L191.259 204.542L313.503 204.542L313.503 229.961ZM263.312 296.825L242.757 296.825L242.757 217.252L263.312 217.252L263.312 296.825ZM313.503 308.985L191.259 308.985L191.259 283.566L313.503 283.566L313.503 308.985Z" fill="black"/>
</svg>
